<svg xmlns="http://www.w3.org/2000/svg" viewBox="0 0 540.82 528.52">
    <path d="M501.2,359c-21.7-76.88-19.3-76.91-26-87-2.86-4.3-12.43-18.06-15-37-1.56-11.49.24-19.18,1-22,2.48-9.19,6.34-12.73,10-20,5.39-10.69,5.7-20.25,6-34,0-.34,0-.68,0-1h0c-9,3.13-17.43-.8-20-2-3.3-1.54-11.71-6.12-21-25-10.83-22-12.14-41.71-13-57-1.17-20.69,1.65-29.36,3-33a63.44,63.44,0,0,1,14-22c2.75-1.28,10.22-4.38,18.94-3-.3-.35-.62-.69-.94-1a46.17,46.17,0,0,0-13-10c-18.82-9.35-40.4-2.14-58,4s-16,8.83-32,14c-16.41,5.29-29.31,6.09-46,7-27,1.48-44.12,2.41-65-4-19.07-5.86-21.44-11.75-42-16-10.55-2.18-22.62-4.68-37-2-26.19,4.87-53,25.59-61,51-2.94,9.36-2.48,16.71-9,34-4,10.65-6.59,14.25-10,22-7.79,17.73-7,27.78-11,52-2.65,15.91-6.11,36.75-14,56C50,247.9,38.58,255,26.2,273c-46.8,67.89-15.68,157.39-14,162q.93,2.55,1.89,5.13A6.78,6.78,0,0,1,17.2,436c4.05-2,9.06,3.23,12,1,1.69-1.28.47-3.32,2-8,.4-1.21,2.92-8.55,7-9,2.41-.27,2.92,2.14,8,4,2.76,1,5,1.83,7,1,3.61-1.51,2.07-6.71,6-12,3.52-4.74,10.15-7.82,13-6s.2,7.54,4,11c2.54,2.31,6.25,2.05,7,2,8.08-.57,10.24-10.1,16-10,4.48.07,7.71,5.89,10,10,5,8.9,5,17.59,5,26,0,6.37,0,13.76-3,23-.17.53-.34,1.08-.53,1.64,4.16-3.21,8.57-7.39,16.53-9.64,3.53-1,12.41-2.93,29,2,13.78,4.09,18.48,8.64,27.75,12.88A90.72,90.72,0,0,1,193,491a31.42,31.42,0,0,1,2.36,6.27c1.26,5.38.14,11-1,16.42a5.92,5.92,0,0,0,0,3.92,5.08,5.08,0,0,0,3.39,2.21,17.45,17.45,0,0,0,13.71-2.18c1.41-.91,3-2.08,4.58-1.67,1.44.36,2.3,1.85,2.68,3.29a22.94,22.94,0,0,0,1.08,4.3c1.66,3.42,6.15,4.09,9.94,4.32a10.87,10.87,0,0,0,4.72-.42c4.45-1.82,4.66-8.34,8.39-11.37a7.13,7.13,0,0,1,9.7,1.08c.72.92,1.2,2,1.93,2.92,2.51,3.14,7.1,3.38,11.12,3.36a10.68,10.68,0,0,0,4.06-.55c2.84-1.17,4.15-4.63,3.86-7.7s-1.79-5.85-3.14-8.62a99.42,99.42,0,0,1-7.61-21.43,59.8,59.8,0,0,1-1.39-8.52c1-.33,1.62-.56,1.81-.63,7.52-2.84,14.29-6.51,27-9,10.87-2.13,19.23-2.05,27-2,24.88.17,39.94.26,46.52.14,3.68,5,8.21,9.67,11.92,14.66a65.47,65.47,0,0,1,11.87,27.43,11,11,0,0,0,1.29,4.14c1.4,2.13,4.13,2.87,6.63,3.3,3.25.55,7,.73,9.42-1.51,1.62-1.5,2.27-3.75,3.42-5.64s3.41-3.54,5.44-2.69c1.26.53,2,1.83,2.79,2.93a12.47,12.47,0,0,0,8.1,4.86,7.66,7.66,0,0,0,5-.76c3-1.79,3.56-5.78,4.21-9.21s2.44-7.43,5.92-7.7c3.11-.23,5.61,2.76,8.7,3.12,4.19.5,7.47-4.25,7.14-8.45s-3-7.79-5.62-11.12c-5.11-6.59-10.23-13.37-12.91-21.26a60.56,60.56,0,0,1-2.49-11.48c-.28-2.06-.52-4.13-.7-6.2A12.13,12.13,0,0,1,440.2,437c5.06-.4,7.7,3.11,17,6,0,0,2.05.64,5.82,1.4a72.31,72.31,0,0,1-4.82-8.4c-2.63-5.14-4.09-13.76-7-31-2.09-12.36-2.59-18.09,1-22,1.59-1.73,4.64-3.83,7-3,3.84,1.36,2.62,9.39,7,11a5,5,0,0,0,5-1c1.75-1.8,0-4.21,1-9,.42-1.95,1.15-5.39,4-7a7.07,7.07,0,0,1,7,0c2.66,1.76,1.56,4.74,5,8,.91.86,2.32,2.19,4,2,2.1-.24,3.36-2.73,4-4,2-4,.52-5.72,2-9a11.23,11.23,0,0,1,4.92-5.23C502.5,363.58,501.86,361.33,501.2,359ZM227.2,93c-.71,8.31-3.11,36.45-26,57-5.34,4.8-19.15,17.2-40,18-4.91.19-20.31.56-34-10-12.94-10-16.56-23.72-19-33-6.19-23.52.54-43.14,3-50s7.83-21.3,22-34c5.72-5.12,19.08-17.1,39-18a52.72,52.72,0,0,1,25,5c13,6.37,19.37,16.63,22,21C229.5,66.08,228,83.51,227.2,93Z" transform="translate(0 0)" style="fill:#006837"/>
    <path d="M501.68,358.86q-7.76-27.5-15.06-55.1c-1.95-7.41-3.68-15-6.14-22.23a43.08,43.08,0,0,0-5.07-10.13c-10.28-15.47-17.49-34.1-14.81-53a41.79,41.79,0,0,1,3.86-12.73c2.37-4.8,5.63-9.08,7.89-13.94,4.94-10.63,5.14-22.28,5.37-33.78a.5.5,0,0,0-.75-.43c-5.81,2.9-14,.62-19.52-2a28.15,28.15,0,0,1-7.09-4.9,59.53,59.53,0,0,1-10.8-14.36A115.2,115.2,0,0,1,429.33,112c-3.94-13.47-5.27-27.51-5.8-41.49-.35-9.53-.3-19.68,2.94-28.78a61.67,61.67,0,0,1,11.37-19.4A13.79,13.79,0,0,1,441,19.19a19.93,19.93,0,0,1,4.19-1.57A31.84,31.84,0,0,1,459,16.5a.51.51,0,0,0,.49-.84A45.27,45.27,0,0,0,424.54,0a85.28,85.28,0,0,0-22.36,3.61A196.1,196.1,0,0,0,380,11.18c-4.47,1.86-8.61,4.27-12.91,6.47a93.4,93.4,0,0,1-19.54,7c-16.26,4.19-33.21,4.62-49.9,5.41-14.37.69-28.86,1-43-1.93a106.93,106.93,0,0,1-21.28-6.7c-5.07-2.22-9.89-5-15-7.11a102.64,102.64,0,0,0-20.27-5.7A100.58,100.58,0,0,0,176,6.35c-14.39.37-28.37,5.4-40.39,13.16C124.33,26.82,114.36,36.73,108,48.69c-5.29,10-6.28,20.75-9.15,31.45a136,136,0,0,1-8,22c-2.54,5.44-5.4,10.71-7.62,16.3-4.6,11.56-6,23.7-7.64,35.93A399.66,399.66,0,0,1,67,200.41c-4.07,15.81-9.91,31.3-19.45,44.65-7.51,10.49-16.64,19.66-23.71,30.5a141.3,141.3,0,0,0-17.53,39C-.45,338.71-1.34,364.24,1.57,389A223.08,223.08,0,0,0,11,432.91c.81,2.47,1.74,4.9,2.65,7.34a.5.5,0,0,0,1,0c.93-2.5,2.7-4.51,5.58-4.13a24.88,24.88,0,0,1,4.53,1.37c1.67.54,3.79,1.05,5.17-.42s.93-4.12,1.27-5.83a22.56,22.56,0,0,1,2.49-6.54c1.33-2.34,3.73-5.41,6.63-3.59a33.13,33.13,0,0,0,7.59,4c2.16.7,4.8,1.29,6.7-.35s2.06-4.86,2.86-7.15a16.6,16.6,0,0,1,8.2-9.34A9.76,9.76,0,0,1,70.24,407c2.37.1,2.85,2,3,4,.24,2.42.34,4.91,2,6.85a9.07,9.07,0,0,0,6.7,2.71c5,.11,8.16-3.06,11.33-6.43,1.81-1.92,4-4.19,6.91-3.46,3.36.84,5.52,4.46,7.16,7.24,5,8.46,6.29,17.17,6.28,26.85,0,8.87-.73,17.29-3.51,25.78-.18.52.48.76.83.48,6.45-5,13-9.55,21.29-10.48,9.79-1.1,20,1.4,29.14,4.75a90.13,90.13,0,0,1,13.16,6.27c1.78,1,3.55,2,5.35,3,.91.47,1.88.86,2.76,1.37,1.57.91,2.48,2.6,3.46,4.08,3.43,5.14,7,11,8.61,17a27,27,0,0,1,.2,10.83c-.41,2.66-1.64,5.62-1.48,8.32.26,4.19,5.52,4.82,8.82,4.77a17.9,17.9,0,0,0,7.06-1.54,22,22,0,0,0,2.69-1.48c.66-.42,1.76-1.33,2.51-1.34l3.16,1.6a7.57,7.57,0,0,1,.69,2.16c.44,1.92.67,3.77,2.14,5.22a9.94,9.94,0,0,0,4.92,2.37c3.58.79,8.44,1.45,11.3-1.37s3.23-8,6.86-10.36a6.66,6.66,0,0,1,9,2c1.35,1.93,2.26,3.53,4.49,4.55,3.34,1.54,9.24,2.11,12.68.69s4.69-5.73,4.09-9.22a26.62,26.62,0,0,0-2.66-7c-1.51-3.09-2.92-6.21-4.13-9.43-1.06-2.81-2-5.68-2.79-8.57-.92-3.35-2.12-7.14-2.23-10.62,0-1.3,0-1.36,1-2a20.56,20.56,0,0,1,2.58-1c2-.81,4-1.65,6-2.46a102.45,102.45,0,0,1,14.39-4.69c11.47-2.76,23-3,34.7-2.89,10.17.07,20.34.15,30.51.17q4.61,0,9.21,0c.76,0,2.28-.33,3,0s1.84,2.35,2.22,2.82c1,1.24,2,2.44,3,3.65,8.1,9.55,14.68,19.41,17.6,31.78,1.16,4.89,1.25,9.15,6.72,10.76,3.55,1,8.43,1.68,11.6-.66,2-1.47,2.66-3.83,3.87-5.86s3.48-3.83,6-2.2c1,.68,1.85,2.5,2.73,3.41,2.83,2.91,7.79,5,11.78,3.38s4.55-6,5.27-9.59c.46-2.34,1.17-5,3.07-6.61,2.95-2.5,6,.17,8.82,1.38a6.5,6.5,0,0,0,8.39-2.59c2.4-3.6,1.68-7.84-.27-11.47-2.74-5.1-7-9.4-10.21-14.19a51,51,0,0,1-7.83-17.26,91.17,91.17,0,0,1-1.54-9.73c-.21-1.9-.53-2.9,1.26-3.85a10.86,10.86,0,0,1,4.78-1.34c4-.1,7.68,2.61,11.24,4.13a57.29,57.29,0,0,0,10.93,3.28c.4.08.83-.35.57-.73a49.81,49.81,0,0,1-6.6-13,112.31,112.31,0,0,1-2.78-12.47c-1.2-6.56-2.39-13.15-3.33-19.76-.62-4.35-1.64-9.93.65-14,1.34-2.38,5.09-5.79,8-4.34,1.93,1,2.31,3.87,2.91,5.72,1.1,3.38,3.37,6.53,7.42,5.15,4.39-1.5,2.32-6.9,3-10.35.58-3,1.75-6.19,4.93-7.2a6.26,6.26,0,0,1,5.34.5c1.51,1.05,1.76,2.8,2.44,4.36,1.58,3.65,6.21,8.09,9.71,4a12.62,12.62,0,0,0,2.74-6.56,18.46,18.46,0,0,1,.55-4.32,10.67,10.67,0,0,1,5-5.66.51.51,0,0,0,.23-.56l-1.92-6.77a.5.5,0,0,0-1,.26c.27,1,.55,2,.83,3,.18.63.95,2.24.82,2.87-.25,1.22-2,2.09-2.83,3.05a11,11,0,0,0-2.63,6.91c-.16,2.67-1.12,6.9-3.8,8.26-4.38,2.21-6.62-5.2-7.93-7.65-2.15-4-8.2-3.67-11-.52a11.79,11.79,0,0,0-2.37,5.38,18.26,18.26,0,0,0-.47,4c0,1.34.48,3,0,4.34-.8,2.39-4.41,2.61-6.11,1.19a7.34,7.34,0,0,1-1.89-3.3c-.63-1.81-.94-3.9-2.08-5.49-2.64-3.68-7.51-.79-9.75,1.87s-2.62,6.46-2.45,9.94c.32,6.62,1.76,13.21,2.88,19.72,1,5.84,1.93,11.75,3.51,17.48a50.07,50.07,0,0,0,7.09,14.54l.56-.73a58.47,58.47,0,0,1-13.9-4.66c-3.21-1.56-6.33-3.25-10-2.65-1.41.24-5,1.17-5.73,2.59-.34.65,0,1.75.06,2.43.18,1.75.4,3.49.65,5.23a52.45,52.45,0,0,0,6.26,19c3.29,5.7,7.63,10.58,11.34,16,1.91,2.77,3.77,6.17,3.18,9.66s-3.42,6.78-7.12,6c-4.12-.9-7.79-5.33-11.72-1.21-3.48,3.65-2.27,9.18-4.87,13.22-2.45,3.81-7.56,3.12-11,1.08a13,13,0,0,1-3.79-3.61,8.75,8.75,0,0,0-2-2.22c-4.72-3.11-7.22,4.33-9.08,6.94-2.3,3.21-6.39,3.13-9.91,2.53a13.34,13.34,0,0,1-4.29-1.3c-2.33-1.31-2.82-3.41-3.28-5.79a68.93,68.93,0,0,0-5.9-17.74,79.59,79.59,0,0,0-10.84-15.79c-2.21-2.61-4.47-5.2-6.54-7.93-.93-1.23-1.32-1-2.81-1-8.07.09-16.15,0-24.21,0-13.81-.08-27.91-1-41.63.89A99.14,99.14,0,0,0,276,470.38c-5,1.78-9.72,4.08-14.72,5.76a.5.5,0,0,0-.36.48c.92,10.14,4.28,20.19,8.65,29.35,2.11,4.41,6.58,12.68.5,16.18-2.06,1.19-5.2.87-7.51.71-2.88-.2-5.74-.85-7.66-3.16-1.22-1.48-1.88-3.24-3.55-4.32a7.82,7.82,0,0,0-4.41-1.22c-3.27.07-5.47,2.16-7,4.89-2.15,3.9-3.23,8.34-8.58,8.38a23.92,23.92,0,0,1-6.26-.71,6.93,6.93,0,0,1-5.52-5.86c-.67-3.13-2.17-6.63-6-5-2.11.86-3.78,2.39-6,3.14a17.06,17.06,0,0,1-8.85.56c-1.88-.4-3.88-1-4.2-3.44-.16-1.3.46-2.92.72-4.19a54.32,54.32,0,0,0,1.13-7.41,27.26,27.26,0,0,0-3.1-14.16,91.45,91.45,0,0,0-8.06-13.58c-1.85-2.58-5.93-3.75-8.7-5.31a97.6,97.6,0,0,0-24-10c-7.31-1.85-15.16-3-22.66-1.59s-13.54,5.76-19.53,10.41l.84.49A76.12,76.12,0,0,0,114.69,447c0-8-.11-16.15-3.3-23.68-2-4.63-5.77-13.11-11.59-13.81-4.85-.58-7.68,5-10.94,7.6a10.47,10.47,0,0,1-9,2.13c-5-1.2-5.1-5.12-5.69-9.32-.83-5.86-7.08-4-10.63-1.65A17.29,17.29,0,0,0,56.91,416c-1.58,3.76-1.4,9.85-7.18,8.58a21.74,21.74,0,0,1-6.19-2.42c-1.09-.64-2-1.55-3.13-2.16a4.16,4.16,0,0,0-4.72.52c-2,1.52-3.29,4.06-4.24,6.34a23.88,23.88,0,0,0-1.11,3.28c-.41,1.66-.26,3.46-.69,5.08-1,3.87-7,.15-9.44-.15-3.45-.42-5.48,1.86-6.6,4.89h1a211.27,211.27,0,0,1-9.68-35.56c-4.24-23.07-5.33-47-1.76-70.2a153.09,153.09,0,0,1,11.69-40.08c5.84-12.87,13.77-24.29,22.83-35.08,8.53-10.17,16.24-20.43,21.63-32.66,6.53-14.81,10.3-30.66,13.2-46.53,2.52-13.79,4-27.7,6.34-41.51A96.76,96.76,0,0,1,82.93,122a169.31,169.31,0,0,1,7.76-17.29A148.89,148.89,0,0,0,102.54,68a67.75,67.75,0,0,1,16.24-32.86,86.6,86.6,0,0,1,35.55-23.71A71.41,71.41,0,0,1,177,7.33c7.83-.1,15.54,1.18,23.18,2.75a92,92,0,0,1,20.07,6.17c4.94,2.26,9.7,4.89,14.73,7a114.52,114.52,0,0,0,39.44,8.23c15.6.58,31.4-.53,46.94-1.71,14.59-1.11,29.38-3.63,42.84-9.58,4.2-1.86,8.09-4.3,12.23-6.28a157.78,157.78,0,0,1,21-7.79C412.67,1.27,429.93-2,445,5.42a46.93,46.93,0,0,1,13.83,11l.49-.83a32.35,32.35,0,0,0-11.23.31c-2.49.52-5.56,1.2-7.77,2.56s-3.81,3.92-5.3,5.85a63.6,63.6,0,0,0-6.09,9.47c-4.75,9.11-6.28,18.62-6.44,28.83-.24,15.08,1.05,30.77,4.76,45.41a118.52,118.52,0,0,0,9.48,25.08c3.15,6.14,6.87,12.17,11.73,17.11a30.38,30.38,0,0,0,8.82,6.39c5.77,2.68,14.17,4.89,20.24,1.86l-.75-.43c-.22,11-.34,22.29-4.9,32.53-2,4.6-5,8.66-7.38,13.06a42.38,42.38,0,0,0-4.2,11.23c-4,18.15,2.1,37.6,11.66,53,2.54,4.09,5.38,7.85,7.06,12.39,2.38,6.39,3.89,13.15,5.63,19.73q7.82,29.66,16.13,59.16A.5.5,0,0,0,501.68,358.86Z" transform="translate(0 0)" style="fill:#000201"/>
    <path d="M226.7,93a98.92,98.92,0,0,1-6.42,28.55A78.71,78.71,0,0,1,195.75,154c-10.74,8.51-23.62,13.57-37.41,13.57-15.58,0-30.88-6.58-40-19.53a61.62,61.62,0,0,1-8.52-19,86.83,86.83,0,0,1-3.64-25c.16-11.66,3-23,7.34-33.74,10.55-26.07,36.93-49.74,66.65-46.58a49.59,49.59,0,0,1,33.92,18.61c9.57,12.1,13.62,27.05,13.16,42.34-.08,2.77-.3,5.54-.53,8.31-.06.64.94.64,1,0,1.35-15.83-.09-31.26-8.58-45.1-6.4-10.44-15.82-18.83-27.55-22.71a55,55,0,0,0-45.82,5.6,81.49,81.49,0,0,0-28.89,30.08c-13.16,24-15.52,53.16-4.52,78.47A48,48,0,0,0,149,167.79a58.82,58.82,0,0,0,38.85-7.18,78.81,78.81,0,0,0,27.91-27.56,89.32,89.32,0,0,0,11.47-35c.21-1.68.36-3.36.51-5C227.75,92.35,226.75,92.35,226.7,93Z" transform="translate(0 0)" style="fill:#000201"/>
    <path d="M109.2,420c5,8.9,5,17.59,5,26,0,6.37,0,13.76-3,23-.17.53-.34,1.08-.53,1.64l-.47.36c-18.34,13.86-47.95,16.84-66,9-16.45-7.15-24-23.58-30.11-39.87A6.78,6.78,0,0,1,17.2,436c4.05-2,9.06,3.23,12,1,1.69-1.28.47-3.32,2-8,.4-1.21,2.92-8.55,7-9,2.41-.27,2.92,2.14,8,4,2.76,1,5,1.83,7,1,3.61-1.51,2.07-6.71,6-12,3.52-4.74,10.15-7.82,13-6s.2,7.54,4,11c2.54,2.31,6.25,2.05,7,2,8.08-.57,10.24-10.1,16-10C103.68,410.06,106.91,415.88,109.2,420Z" transform="translate(0 0)" style="fill:#006837;stroke:#000;stroke-miterlimit:10"/>
    <path d="M219.2,49c10.3,17.09,8.81,34.52,8,44-.71,8.31-3.11,36.45-26,57-5.34,4.8-19.15,17.2-40,18-4.91.19-20.31.56-34-10-12.94-10-16.56-23.72-19-33-6.19-23.52.54-43.14,3-50s7.83-21.3,22-34c5.72-5.12,19.08-17.1,39-18a52.72,52.72,0,0,1,25,5C210.2,34.36,216.57,44.62,219.2,49Z" transform="translate(0 0)" style="fill:#006837;stroke:#000;stroke-miterlimit:10"/>
    <path d="M457.2,156c-3.3-1.54-11.71-6.12-21-25-10.83-22-12.14-41.71-13-57-1.17-20.69,1.65-29.36,3-33a63.44,63.44,0,0,1,14-22c2.75-1.28,10.22-4.38,18.94-3,15.82,17.49,20.2,43.43,18.08,142h0C468.22,161.12,459.77,157.19,457.2,156Z" transform="translate(0 0)" style="fill:#006837;stroke:#000;stroke-miterlimit:10"/>
    <path d="M514.2,434c-10.51,12.25-38.09,12.71-48,11q-1.76-.3-3.18-.6a72.31,72.31,0,0,1-4.82-8.4c-2.63-5.14-4.09-13.76-7-31-2.09-12.36-2.59-18.09,1-22,1.59-1.73,4.64-3.83,7-3,3.84,1.36,2.62,9.39,7,11a5,5,0,0,0,5-1c1.75-1.8,0-4.21,1-9,.42-1.95,1.15-5.39,4-7a7.07,7.07,0,0,1,7,0c2.66,1.76,1.56,4.74,5,8,.91.86,2.32,2.19,4,2,2.1-.24,3.36-2.73,4-4,2-4,.52-5.72,2-9a11.23,11.23,0,0,1,4.92-5.23C517.57,416.66,521,426,514.2,434Z" transform="translate(0 0)" style="fill:#006837;stroke:#000;stroke-miterlimit:10"/>
    <path d="M227.2,93c-.71,8.31-3.11,36.45-26,57-5.34,4.8-19.15,17.2-40,18-4.91.19-20.31.56-34-10-12.94-10-16.56-23.72-19-33-6.19-23.52.54-43.14,3-50s7.83-21.3,22-34c5.72-5.12,19.08-17.1,39-18a52.72,52.72,0,0,1,25,5c13,6.37,19.37,16.63,22,21C229.5,66.08,228,83.51,227.2,93Z" transform="translate(0 0)" style="fill:#006837;stroke:#000;stroke-miterlimit:10"/>
    <path d="M492.2,143c-3.05,5.41-7,12.21-15,15h0c-9,3.13-17.43-.8-20-2-3.3-1.54-11.71-6.12-21-25-10.83-22-12.14-41.71-13-57-1.17-20.69,1.65-29.36,3-33a63.44,63.44,0,0,1,14-22c2.75-1.28,10.22-4.38,18.94-3a24.87,24.87,0,0,1,4.06,1c8.07,2.62,12.58,8.28,17,14,1.94,2.51,8.45,11.28,14,31a141.12,141.12,0,0,1,6,40C500.22,115.39,500.09,129,492.2,143Z" transform="translate(0 0)" style="fill:#006837;stroke:#000;stroke-miterlimit:10"/>
    <path d="M114.2,446c0,6.37,0,13.76-3,23-.17.53-.34,1.08-.53,1.64-2.43,7.47-6.2,17.58-15.47,22.36-2.6,1.34-5.73,1.89-12,3-7.27,1.28-13.6,2.4-21,1-7.18-1.36-12.1-4.48-16-7-6.31-4.08-11-9.78-20-21-11.27-14-13.06-18.18-13-23a20.56,20.56,0,0,1,.89-5.87A6.78,6.78,0,0,1,17.2,436c4.05-2,9.06,3.23,12,1,1.69-1.28.47-3.32,2-8,.4-1.21,2.92-8.55,7-9,2.41-.27,2.92,2.14,8,4,2.76,1,5,1.83,7,1,3.61-1.51,2.07-6.71,6-12,3.52-4.74,10.15-7.82,13-6s.2,7.54,4,11c2.54,2.31,6.25,2.05,7,2,8.08-.57,10.24-10.1,16-10,4.48.07,7.71,5.89,10,10C114.16,428.89,114.23,437.58,114.2,446Z" transform="translate(0 0)" style="fill:#006837;stroke:#000;stroke-miterlimit:10"/>
    <path d="M540.2,400c-.3,7.59-.84,18.57-7,32-4.46,9.74-9.16,20-20,25-5.28,2.45-10.07,2.75-14,3-4.52.29-14.94.95-25-5A35,35,0,0,1,463,444.39a72.31,72.31,0,0,1-4.82-8.4c-2.63-5.14-4.09-13.76-7-31-2.09-12.36-2.59-18.09,1-22,1.59-1.73,4.64-3.83,7-3,3.84,1.36,2.62,9.39,7,11a5,5,0,0,0,5-1c1.75-1.8,0-4.21,1-9,.42-1.95,1.15-5.39,4-7a7.07,7.07,0,0,1,7,0c2.66,1.76,1.56,4.74,5,8,.91.86,2.32,2.19,4,2,2.1-.24,3.36-2.73,4-4,2-4,.52-5.72,2-9a11.23,11.23,0,0,1,4.92-5.23,6.75,6.75,0,0,1,3.08-.77c4.66,0,7.68,5.41,8,6,3.18,5.86.08,11.11,3,13,2,1.27,5.25.13,7-1,2.73-1.76,2.63-4.08,5-5,2.6-1,5.52.71,6,1C540.78,382.29,540.48,392.77,540.2,400Z" transform="translate(0 0)" style="fill:#006837;stroke:#000;stroke-miterlimit:10"/>
    <path d="M164.86,196.69a23.81,23.81,0,0,0,8.66-9" transform="translate(0 0)" style="fill:#006837"/>
    <path d="M165.11,197.12a25.19,25.19,0,0,0,8.85-9.2.5.5,0,0,0-.87-.5,24.15,24.15,0,0,1-8.49,8.84c-.54.33,0,1.2.51.86Z" transform="translate(0 0)"/>
    <path d="M450.19,167.16a22.27,22.27,0,0,0,8.93,8.94" transform="translate(0 0)" style="fill:#006837"/>
    <path d="M449.76,167.42a23.46,23.46,0,0,0,9.11,9.11c.56.31,1.07-.55.51-.86a22.43,22.43,0,0,1-8.76-8.76c-.31-.56-1.17-.06-.86.51Z" transform="translate(0 0)"/>
    <path d="M170.94,193.57c5.81,2.94,12.19,4.56,18.53,6a491.05,491.05,0,0,0,205.81,3.45c21.82-4.31,45.28-11.45,57.58-30" transform="translate(0 0)" style="fill:#006837"/>
    <path d="M170.69,194c8.72,4.3,18.48,6.15,27.93,8.16q15.12,3.21,30.43,5.45a492.44,492.44,0,0,0,61.24,5.09,491.38,491.38,0,0,0,62.21-2.65c19-2,38.33-4.73,56.83-9.7,16.87-4.53,33.87-12.07,44-27,.37-.54-.5-1-.86-.51-9.2,13.62-24.38,21-39.72,25.52-18,5.3-36.91,8-55.48,10.16a492,492,0,0,1-120-.79q-16.91-2.19-33.64-5.57c-10.85-2.19-22.36-4.09-32.36-9-.58-.28-1.08.58-.5.86Z" transform="translate(0 0)"/>
    <path d="M299.81,168.67a5.66,5.66,0,0,0-4.07-.07,4.24,4.24,0,0,0-2.31,1.93,2.92,2.92,0,0,0,.07,2.93,3.53,3.53,0,0,0,1.29,1.07,5.23,5.23,0,0,0,3.89.45,3,3,0,0,0,1-.51,4,4,0,0,0,.89-1.08,6.13,6.13,0,0,0,.91-2.06,2,2,0,0,0,0-1c-.21-.72-.94-1.13-1.6-1.48" transform="translate(0 0)" style="fill:#005237"/>
    <path d="M300,168.19c-2.28-.81-5.2-.45-6.69,1.66a3.42,3.42,0,0,0,1.27,5.11c2,1.06,4.72,1,6.17-.83a5.58,5.58,0,0,0,1.35-3.35c-.07-1.17-.95-1.79-1.9-2.31-.57-.3-1.08.56-.51.87,1.38.74,1.6,1.9.82,3.31a4,4,0,0,1-1.32,1.6,4.53,4.53,0,0,1-4.47-.36c-1.8-1.23-1.12-3.49.53-4.47a5.22,5.22,0,0,1,4.48-.27c.61.22.87-.75.27-1Z" transform="translate(0 0)" style="fill:#000201"/>
    <path d="M366.21,165.43a4.4,4.4,0,0,0-4.63,1.64,9.05,9.05,0,0,0-1.21,4.77,3.14,3.14,0,0,0,.63,1.66,4.13,4.13,0,0,0,2.71,1.21,5.44,5.44,0,0,0,2.69-.14,4,4,0,0,0,1.91-1.59,7,7,0,0,0,.91-2.34,4.22,4.22,0,0,0-.12-2.7,4.6,4.6,0,0,0-1.05-1.32,4.1,4.1,0,0,0-2.51-1.34" transform="translate(0 0)" style="fill:#005237"/>
    <path d="M366.35,165a5,5,0,0,0-6.05,3.71c-.89,3-.4,5.88,3,6.49,3.21.57,5.51-.9,6.31-4.07a4.94,4.94,0,0,0-4-6.28c-.63-.1-.9.86-.26,1a4,4,0,0,1,3.33,4.75c-.53,2.56-2.16,4.08-4.88,3.71-1.24-.17-2.46-.47-2.9-1.92a5.81,5.81,0,0,1,.22-3.06c.63-2.34,2.43-3.83,4.9-3.33.63.13.9-.83.27-1Z" transform="translate(0 0)"/>
    <path d="M261.39,476.62a32,32,0,0,1,.62-10.23c1.72-7.15,6.46-13.55,6.73-20.9" transform="translate(0 0)" style="fill:#006837"/>
    <path d="M261.89,476.62c-.49-6.36.85-11.9,3.32-17.7,1.86-4.35,3.75-8.65,4-13.43,0-.64-1-.64-1,0-.33,5.49-2.88,10.32-4.9,15.33a34.13,34.13,0,0,0-2.45,15.8c.05.64,1.05.64,1,0Z" transform="translate(0 0)" style="fill:#000201"/>
    <path d="M169.14,460.22A90.35,90.35,0,0,1,184,475.87" transform="translate(0 0)" style="fill:#006837"/>
    <path d="M168.78,460.57a93.56,93.56,0,0,1,14.74,15.55c.38.51,1.25,0,.86-.5a94.18,94.18,0,0,0-14.89-15.76c-.49-.41-1.2.3-.71.71Z" transform="translate(0 0)" style="fill:#000201"/>
    <path d="M434.36,439.55a145.73,145.73,0,0,1-.42-19.82c0-.65-1-.64-1,0a145.73,145.73,0,0,0,.42,19.82c.05.63,1.05.64,1,0Z" transform="translate(0 0)"/>
    <path d="M364.15,464.88a35.07,35.07,0,0,1-6.46-13.63c-.13-.64-1.09-.37-1,.26a35.71,35.71,0,0,0,6.56,13.87c.37.52,1.24,0,.86-.5Z" transform="translate(0 0)"/>
    <path d="M217.7,96.49l-2.25-1.22c-5.34-2.28-11.17-3.16-16.93-3.91-6.69-.86-13.4-1.56-20.13-2.2-3.78-.37-7.57-.71-11.36-1-5.8-.53-11.53-1-17.24-1.51-12-1-23.9-2-36.09-3.11h-2l1.46-1.06c10-6,21.94-8,33.61-8.44,1.21,0,2.43-.08,3.65-.1A133.9,133.9,0,0,1,180,76.61a110.57,110.57,0,0,1,21.88,7c5.71,2.51,11.46,5.8,14.59,11.19Z" transform="translate(0 0)" style="fill:#fff"/>
    <path d="M218,96.06c-6.58-3.57-14-4.53-21.34-5.44-9.68-1.2-19.4-2.09-29.11-3s-19.58-1.71-29.37-2.54C129.39,84.36,120.46,83,111.7,83l.25.93c11.45-8.31,27.19-9.56,40.87-9.55,16.53,0,33.16,2.86,48.37,9.46a41.44,41.44,0,0,1,10.43,6c2.31,2,3.89,4.44,5.65,6.87.37.52,1.24,0,.86-.5A47.08,47.08,0,0,0,214,90.75a31.23,31.23,0,0,0-8.34-5.92,99,99,0,0,0-22.85-8.1A126.42,126.42,0,0,0,133,74.88c-7.51,1.31-15.31,3.65-21.53,8.18a.5.5,0,0,0,.25.93c8.45,0,17,1.32,25.46,2,9.47.81,19,1.6,28.42,2.46s18.79,1.69,28.16,2.79c8.06,1,16.46,1.72,23.71,5.65C218,97.23,218.52,96.36,218,96.06Z" transform="translate(0 0)"/>
    <path d="M461.94,87c-7.6.44-15.26.92-23.24,1.45h-3a59.58,59.58,0,0,1,25.09-15.11" transform="translate(0 0)" style="fill:#fff"/>
    <path d="M461.94,86.54C453.21,87,444.44,88,435.7,88l.35.85a59.83,59.83,0,0,1,24.87-15,.5.5,0,0,0-.27-1,61.07,61.07,0,0,0-25.31,15.23.51.51,0,0,0,.36.86c8.74,0,17.51-.95,26.24-1.45.64,0,.64-1,0-1Z" transform="translate(0 0)"/>
    <path d="M489.7,85.49c2.54-.13,5.63-.23,8.22-.35l1.27-.51-1.51-9.42-1.39-1.09a12.7,12.7,0,0,0-6.59-2.63Z" transform="translate(0 0)" style="fill:#fff"/>
    <path d="M489.7,86c3.12-.15,6.7.29,9.62-.88a.52.52,0,0,0,.35-.61c-.46-2.89-.8-5.82-1.39-8.68-.64-3-5.88-4.42-8.45-4.81a.5.5,0,0,0-.63.48v14a.5.5,0,0,0,1,0v-14l-.64.48a14,14,0,0,1,7.07,3c.77.63.67,1,.88,2.28l1.2,7.46.34-.61c-2.79,1.12-6.37.69-9.35.84C489.06,85,489.05,86,489.7,86Z" transform="translate(0 0)"/>
    <path d="M178.39,89.16c-3.78-.37-7.57-.71-11.36-1-5.8-.53-11.53-1-17.24-1.51a16.41,16.41,0,0,1,.63-12.71A133.9,133.9,0,0,1,180,76.61,16.23,16.23,0,0,1,178.39,89.16Z" transform="translate(0 0)" style="stroke:#000;stroke-miterlimit:10"/>
    <path d="M490.23,85.52c-9.63.47-18.91,1-28.29,1.52a16.34,16.34,0,0,1-1.15-13.66,49,49,0,0,1,6.84-1.46,112.46,112.46,0,0,1,17.51-.58,40.62,40.62,0,0,1,4.67.27A16.23,16.23,0,0,1,490.23,85.52Z" transform="translate(0 0)" style="stroke:#000;stroke-miterlimit:10"/>
</svg>