<svg xmlns="http://www.w3.org/2000/svg" viewBox="0 0 76 16">
    <defs>
        <style>
            .cls-1 {
                fill: red;
            }

            .cls-2 {
                fill: #fff;
            }

            .cls-3 {
                fill: #ff765f;
            }
        </style>
    </defs>
    <path class="cls-1"
            d="M12,2V16H10a2,2,0,0,1-2-2V10H4v6H2a2,2,0,0,1-2-2V0H2a2,2,0,0,0,.59,1.41A2,2,0,0,0,4,2V6H8V0h2a2,2,0,0,0,.59,1.41A2,2,0,0,0,12,2Z" />
    <path class="cls-2"
            d="M24.59,1.41A2,2,0,0,1,24,0H16a2,2,0,0,0-1.41.59A2,2,0,0,0,14,2V14a2,2,0,0,0,2,2h2V10h4v4a2,2,0,0,0,2,2h2V2A2,2,0,0,1,24.59,1.41ZM22,4a2,2,0,0,1-2,2H18V4a2,2,0,0,1,2-2h0a2,2,0,0,1,2,2Z" />
    <path class="cls-2"
            d="M37,5a3.42,3.42,0,0,0-2.42-1H30a2,2,0,0,0-2,2h0v8h0a2,2,0,0,0,2,2h1V9h0a2,2,0,0,1,2-2h0a2,2,0,0,1,2,2h0v5a2,2,0,0,0,2,2h1V7.42A3.42,3.42,0,0,0,37,5Z" />
    <rect class="cls-2" x="40" width="4" height="4" rx="2" />
    <rect class="cls-2" x="40" y="5" width="4" height="11" rx="2" />
    <path class="cls-2"
            d="M63,7.42V16H62a2,2,0,0,1-2-2V9a2,2,0,0,0-4,0v7H55a2,2,0,0,1-2-2V9a2,2,0,0,0-4,0v7H48a2,2,0,0,1-2-2V6a2,2,0,0,1,2-2h4.58A3.41,3.41,0,0,1,54,4.29,2,2,0,0,1,55,4h4.58A3.41,3.41,0,0,1,63,7.42Z" />
    <path class="cls-2"
            d="M76,6.4a2.2,2.2,0,0,0-.81-1.69A2.87,2.87,0,0,0,73.25,4h-5.5A2.6,2.6,0,0,0,65,6.4v7.2a2.2,2.2,0,0,0,.81,1.69,2.87,2.87,0,0,0,1.94.71h5.5a2.87,2.87,0,0,0,1.94-.71A2.2,2.2,0,0,0,76,13.6H70.5a2.87,2.87,0,0,1-1.94-.71l-.13-.12a2.06,2.06,0,0,1-.42-.56,2.08,2.08,0,0,1-.26-1H76ZM71.88,8.8A1.3,1.3,0,0,1,70.5,7.6a1.39,1.39,0,0,1,2.75,0A1.3,1.3,0,0,1,71.88,8.8Z" />
    <path class="cls-3"
            d="M76,12.66c0,.06-.06.12-.16.17a.89.89,0,0,1-.38.07,1,1,0,0,1-.39-.07.92.92,0,0,0-.38-.07,1,1,0,0,0-.39.07.89.89,0,0,1-.38.07,1,1,0,0,1-.39-.07,1.07,1.07,0,0,0-.76,0,1,1,0,0,1-.39.07.89.89,0,0,1-.38-.07,1,1,0,0,0-.39-.07.92.92,0,0,0-.38.07,1,1,0,0,1-.39.07.89.89,0,0,1-.38-.07.89.89,0,0,0-.38-.07,1,1,0,0,0-.39.07,1,1,0,0,1-.39.07.89.89,0,0,1-.38-.07,1,1,0,0,0-.49-.06,2.06,2.06,0,0,1-.42-.56l.14,0a1,1,0,0,1,.39-.07.89.89,0,0,1,.38.07.89.89,0,0,0,.38.07,1,1,0,0,0,.39-.07,1,1,0,0,1,.39-.07.89.89,0,0,1,.38.07.89.89,0,0,0,.38.07,1,1,0,0,0,.39-.07.92.92,0,0,1,.38-.07,1,1,0,0,1,.39.07.89.89,0,0,0,.38.07,1,1,0,0,0,.39-.07,1.07,1.07,0,0,1,.76,0,1,1,0,0,0,.39.07.89.89,0,0,0,.38-.07,1,1,0,0,1,.77,0l.39.16.38.17C75.94,12.54,76,12.6,76,12.66Z" />
</svg>